<svg width="269" height="64" viewBox="0 0 269 64" fill="none" xmlns="http://www.w3.org/2000/svg">
<path d="M258.009 0.829014C258.991 0.829014 259.95 1.08236 260.885 1.58839C261.82 2.08978 262.549 2.81003 263.071 3.7498C263.592 4.68493 263.853 5.66118 263.853 6.67921C263.853 7.68597 263.595 8.65492 263.079 9.58474C262.567 10.5146 261.846 11.2375 260.916 11.7541C259.991 12.2654 259.023 12.5208 258.009 12.5208C256.997 12.5208 256.026 12.2648 255.095 11.7541C254.171 11.2375 253.45 10.5146 252.933 9.58474C252.416 8.65492 252.157 7.68597 252.157 6.67921C252.157 5.66184 252.419 4.68559 252.941 3.7498C253.467 2.81003 254.198 2.08978 255.134 1.58839C256.069 1.08236 257.027 0.829014 258.009 0.829014ZM258.009 1.79664C257.188 1.79664 256.387 2.00887 255.608 2.432C254.832 2.85049 254.225 3.45268 253.786 4.23726C253.347 5.0172 253.127 5.83096 253.127 6.67788C253.127 7.52016 253.341 8.32796 253.771 9.10325C254.204 9.87324 254.809 10.4748 255.584 10.9085C256.36 11.3376 257.167 11.5518 258.009 11.5518C258.852 11.5518 259.66 11.3376 260.435 10.9085C261.21 10.4748 261.812 9.87324 262.241 9.10325C262.67 8.32862 262.884 7.52016 262.885 6.67788C262.885 5.83096 262.665 5.0172 262.226 4.23726C261.792 3.45202 261.185 2.85049 260.405 2.432C259.624 2.00887 258.825 1.7973 258.009 1.79664ZM255.656 9.76912V3.47855H257.819C258.557 3.47855 259.092 3.53757 259.423 3.65695C259.754 3.77036 260.017 3.97198 260.213 4.26114C260.409 4.5503 260.507 4.85737 260.507 5.183C260.507 5.64261 260.342 6.04319 260.011 6.38408C259.686 6.72497 259.252 6.91598 258.71 6.9571C258.931 7.04995 259.11 7.16137 259.244 7.29003C259.497 7.53807 259.808 7.9539 260.174 8.53687L260.941 9.76845H259.701L259.143 8.77695C258.704 7.99701 258.35 7.50889 258.081 7.31258C257.895 7.168 257.624 7.09571 257.267 7.09571H256.67V9.76845L255.656 9.76912ZM256.671 6.22889H257.904C258.493 6.22889 258.892 6.14135 259.105 5.96559C259.322 5.79051 259.43 5.55772 259.43 5.26856C259.43 5.08219 259.378 4.91706 259.275 4.77181C259.172 4.62259 259.027 4.51117 258.842 4.43888C258.661 4.36725 258.323 4.33078 257.827 4.33011H256.672L256.671 6.22889Z" fill="white"/>
<path d="M147.323 52.1059C147.262 51.8247 147.165 51.5674 147.032 51.332C146.898 51.0979 146.727 50.9035 146.519 50.749C146.312 50.5951 146.06 50.5182 145.766 50.5182C145.068 50.5182 144.565 50.9069 144.257 51.6841C143.949 52.4614 143.795 53.7467 143.795 55.5421C143.795 56.4009 143.822 57.1782 143.876 57.8746C143.929 58.5716 144.027 59.1645 144.167 59.6533C144.307 60.1428 144.508 60.5175 144.77 60.7788C145.031 61.0401 145.369 61.1707 145.785 61.1707C145.959 61.1707 146.15 61.1243 146.358 61.0301C146.566 60.9366 146.76 60.796 146.94 60.6083C147.122 60.4206 147.273 60.1825 147.394 59.8947C147.514 59.6069 147.574 59.2686 147.574 58.8793V57.4123H145.664V55.2814H150.349V63.0204H148.218V61.6933H148.177C147.829 62.2564 147.409 62.655 146.921 62.8898C146.431 63.1246 145.845 63.2413 145.161 63.2413C144.277 63.2413 143.556 63.0868 143 62.779C142.444 62.4706 142.008 61.9951 141.692 61.3525C141.377 60.7085 141.166 59.9153 141.06 58.9702C140.953 58.0251 140.899 56.9308 140.899 55.6846C140.899 54.4783 140.976 53.4198 141.13 52.5085C141.285 51.5973 141.549 50.8366 141.925 50.2271C142.299 49.6176 142.795 49.1586 143.413 48.8509C144.029 48.5425 144.8 48.3886 145.724 48.3886C147.305 48.3886 148.445 48.7806 149.142 49.5639C149.838 50.3478 150.187 51.4706 150.187 52.931H147.412C147.413 52.6624 147.383 52.3872 147.323 52.1059ZM157.374 55.292C157.332 54.977 157.263 54.7091 157.162 54.4875C157.062 54.2667 156.921 54.0996 156.74 53.9855C156.559 53.8714 156.328 53.8144 156.046 53.8144C155.765 53.8144 155.534 53.8781 155.353 54.0054C155.172 54.1321 155.028 54.3005 154.92 54.5081C154.813 54.7157 154.736 54.9472 154.689 55.2012C154.642 55.4558 154.619 55.7112 154.619 55.9652V56.387H157.454C157.441 55.9725 157.413 55.6077 157.374 55.292ZM154.619 58.9006C154.619 59.2222 154.642 59.5333 154.689 59.835C154.735 60.1368 154.813 60.4041 154.92 60.6388C155.028 60.8736 155.168 61.0613 155.343 61.2019C155.517 61.3425 155.731 61.4128 155.986 61.4128C156.456 61.4128 156.798 61.2457 157.012 60.9101C157.226 60.5758 157.374 60.0665 157.455 59.3821H159.948C159.894 60.6415 159.559 61.6005 158.942 62.2564C158.325 62.913 157.353 63.2413 156.026 63.2413C155.021 63.2413 154.237 63.0735 153.674 62.7386C153.111 62.4043 152.695 61.9619 152.427 61.4121C152.159 60.863 151.995 60.2462 151.935 59.5631C151.875 58.8793 151.844 58.1956 151.844 57.5131C151.844 56.7896 151.895 56.0919 151.995 55.4227C152.096 54.7535 152.297 54.1559 152.598 53.6333C152.9 53.1107 153.332 52.6955 153.895 52.3871C154.458 52.0794 155.208 51.9256 156.147 51.9256C156.951 51.9256 157.611 52.0555 158.127 52.3175C158.643 52.5788 159.049 52.9476 159.344 53.4231C159.638 53.8993 159.839 54.4749 159.947 55.1508C160.054 55.8279 160.107 56.5813 160.107 57.4123V58.0357H154.619V58.9006ZM164.376 48.6692V53.2122H164.417C164.711 52.7838 165.042 52.4621 165.412 52.2472C165.781 52.033 166.227 51.9262 166.749 51.9262C167.888 51.9262 168.726 52.3719 169.262 53.2633C169.798 54.1546 170.066 55.6044 170.066 57.6146C170.066 59.6248 169.798 61.0653 169.262 61.9367C168.726 62.8075 167.888 63.2433 166.749 63.2433C166.186 63.2433 165.713 63.1425 165.332 62.9415C164.949 62.7406 164.604 62.3857 164.295 61.8771H164.256V63.0231H161.601V48.6712H164.376V48.6692ZM164.648 60.2774C164.827 60.873 165.227 61.1714 165.844 61.1714C166.447 61.1714 166.839 60.8736 167.02 60.2774C167.2 59.6812 167.291 58.7931 167.291 57.6133C167.291 56.4347 167.2 55.5474 167.02 54.9498C166.839 54.3542 166.447 54.0558 165.844 54.0558C165.227 54.0558 164.828 54.3536 164.648 54.9498C164.467 55.5467 164.376 56.4341 164.376 57.6133C164.376 58.7925 164.467 59.6805 164.648 60.2774ZM178.365 48.388V50.759H176.114V48.388H178.365ZM174.907 48.388V50.759H172.655V48.388H174.907ZM176.033 57.9648C175.818 58.0523 175.624 58.1166 175.45 58.1558C174.886 58.2765 174.485 58.4774 174.244 58.7593C174.002 59.0405 173.882 59.4225 173.882 59.9047C173.882 60.3205 173.962 60.6753 174.123 60.9698C174.284 61.2649 174.551 61.4121 174.928 61.4121C175.115 61.4121 175.309 61.3823 175.51 61.3219C175.711 61.2609 175.895 61.1641 176.063 61.0301C176.23 60.8968 176.368 60.7224 176.475 60.5075C176.583 60.2933 176.636 60.0386 176.636 59.7442V57.6133C176.448 57.7618 176.248 57.8785 176.033 57.9648ZM171.569 55.2615C171.569 54.6328 171.67 54.1069 171.871 53.6837C172.073 53.2619 172.344 52.9204 172.686 52.6584C173.028 52.3971 173.43 52.2101 173.892 52.096C174.354 51.9819 174.847 51.9249 175.37 51.9249C176.201 51.9249 176.871 52.0045 177.381 52.1656C177.89 52.3261 178.285 52.5543 178.566 52.8487C178.848 53.1439 179.039 53.4954 179.139 53.9039C179.24 54.3131 179.291 54.7588 179.291 55.2416V60.9293C179.291 61.4393 179.313 61.8339 179.36 62.1151C179.407 62.397 179.498 62.6981 179.632 63.0198H176.978C176.884 62.8453 176.814 62.661 176.767 62.4667C176.721 62.273 176.676 62.082 176.637 61.8936H176.596C176.275 62.4574 175.902 62.8221 175.48 62.9893C175.058 63.1571 174.512 63.2406 173.841 63.2406C173.359 63.2406 172.949 63.1571 172.614 62.9893C172.279 62.8221 172.011 62.5907 171.81 62.2962C171.609 62.0011 171.461 61.6695 171.368 61.3007C171.274 60.9326 171.227 60.5672 171.227 60.2058C171.227 59.6964 171.281 59.258 171.388 58.8899C171.495 58.5205 171.66 58.2062 171.881 57.9442C172.102 57.6829 172.383 57.4654 172.724 57.2916C173.067 57.1172 173.478 56.9633 173.961 56.8293L175.529 56.4075C175.945 56.3001 176.232 56.1529 176.394 55.9652C176.554 55.7775 176.635 55.5029 176.635 55.1408C176.635 54.7256 176.538 54.4007 176.343 54.1659C176.149 53.9311 175.817 53.8144 175.348 53.8144C174.92 53.8144 174.597 53.9417 174.383 54.1964C174.169 54.4511 174.062 54.792 174.062 55.2217V55.5228H171.568V55.2615H171.569ZM186.646 61.7537C186.351 62.2909 185.969 62.6716 185.5 62.9004C185.03 63.1279 184.494 63.242 183.891 63.242C183.006 63.242 182.326 63.0105 181.851 62.5482C181.374 62.086 181.137 61.3127 181.137 60.227V52.2074H183.912V59.6639C183.912 60.227 184.005 60.6183 184.194 60.8391C184.381 61.0606 184.683 61.1707 185.098 61.1707C186.076 61.1707 186.566 60.5758 186.566 59.3821V52.2074H189.34V63.0211H186.687V61.7544L186.646 61.7537ZM196.709 61.8751C196.401 62.3844 196.056 62.7392 195.673 62.9395C195.292 63.1405 194.819 63.2413 194.255 63.2413C193.116 63.2413 192.279 62.8062 191.743 61.9348C191.206 61.0633 190.938 59.6235 190.938 57.6126C190.938 55.6031 191.206 54.1526 191.743 53.2613C192.279 52.3699 193.116 51.9242 194.255 51.9242C194.778 51.9242 195.224 52.031 195.593 52.2452C195.962 52.4601 196.293 52.7818 196.588 53.2102H196.628V48.6672H199.403V63.0191H196.749V61.8731H196.709V61.8751ZM193.985 60.2774C194.166 60.873 194.558 61.1714 195.161 61.1714C195.777 61.1714 196.176 60.8736 196.357 60.2774C196.538 59.6812 196.628 58.7931 196.628 57.6133C196.628 56.4347 196.538 55.5474 196.357 54.9498C196.177 54.3542 195.777 54.0558 195.161 54.0558C194.558 54.0558 194.166 54.3536 193.985 54.9498C193.804 55.5467 193.713 56.4341 193.713 57.6133C193.713 58.7925 193.804 59.6805 193.985 60.2774ZM206.46 55.292C206.42 54.977 206.35 54.7091 206.25 54.4875C206.149 54.2667 206.009 54.0996 205.828 53.9855C205.647 53.8714 205.415 53.8144 205.134 53.8144C204.852 53.8144 204.621 53.8781 204.44 54.0054C204.259 54.1321 204.115 54.3005 204.008 54.5081C203.9 54.7157 203.824 54.9472 203.776 55.2012C203.729 55.4558 203.706 55.7112 203.706 55.9652V56.387H206.541C206.527 55.9725 206.5 55.6077 206.46 55.292ZM203.705 58.9006C203.705 59.2222 203.729 59.5333 203.775 59.835C203.822 60.1368 203.9 60.4041 204.007 60.6388C204.114 60.8736 204.255 61.0613 204.429 61.2019C204.604 61.3425 204.818 61.4128 205.073 61.4128C205.542 61.4128 205.884 61.2457 206.099 60.9101C206.313 60.5758 206.46 60.0665 206.541 59.3821H209.034C208.981 60.6415 208.645 61.6005 208.028 62.2564C207.412 62.913 206.44 63.2413 205.113 63.2413C204.108 63.2413 203.324 63.0735 202.761 62.7386C202.197 62.4043 201.782 61.9619 201.514 61.4121C201.246 60.863 201.082 60.2462 201.021 59.5631C200.961 58.8793 200.931 58.1956 200.931 57.5131C200.931 56.7896 200.981 56.0919 201.082 55.4227C201.183 54.7528 201.384 54.1559 201.685 53.6333C201.987 53.1107 202.418 52.6955 202.982 52.3871C203.545 52.0794 204.295 51.9256 205.234 51.9256C206.038 51.9256 206.698 52.0555 207.214 52.3175C207.73 52.5788 208.136 52.9476 208.431 53.4231C208.725 53.8993 208.926 54.4749 209.034 55.1508C209.141 55.8279 209.194 56.5813 209.194 57.4123V58.0357H203.705V58.9006ZM216.183 61.8751C215.875 62.3844 215.53 62.7392 215.148 62.9395C214.765 63.1398 214.293 63.2413 213.73 63.2413C212.59 63.2413 211.753 62.8062 211.217 61.9348C210.68 61.064 210.413 59.6235 210.413 57.6126C210.413 55.6031 210.68 54.1526 211.217 53.2613C211.753 52.3699 212.59 51.9242 213.73 51.9242C214.252 51.9242 214.698 52.031 215.067 52.2452C215.436 52.4601 215.767 52.7818 216.062 53.2102H216.102V48.6672H218.878V63.0191H216.224V61.8731H216.183V61.8751ZM213.459 60.2774C213.639 60.873 214.032 61.1714 214.634 61.1714C215.251 61.1714 215.65 60.8736 215.831 60.2774C216.011 59.6812 216.102 58.7931 216.102 57.6133C216.102 56.4347 216.011 55.5474 215.831 54.9498C215.65 54.3542 215.251 54.0558 214.634 54.0558C214.032 54.0558 213.639 54.3536 213.459 54.9498C213.278 55.5467 213.187 56.4341 213.187 57.6133C213.187 58.7925 213.278 59.6805 213.459 60.2774ZM223.551 48.5087V50.8803H220.777V48.5087H223.551ZM223.551 52.2074V63.0211H220.777V52.2074H223.551ZM230.672 55.292C230.63 54.977 230.56 54.7091 230.46 54.4875C230.36 54.2667 230.219 54.0996 230.038 53.9855C229.857 53.8714 229.626 53.8144 229.344 53.8144C229.062 53.8144 228.831 53.8781 228.65 54.0054C228.47 54.1321 228.326 54.3005 228.218 54.5081C228.111 54.7157 228.034 54.9472 227.987 55.2012C227.94 55.4558 227.917 55.7112 227.917 55.9652V56.387H230.751C230.737 55.9725 230.711 55.6077 230.672 55.292ZM227.917 58.9006C227.917 59.2222 227.94 59.5333 227.986 59.835C228.033 60.1368 228.11 60.4041 228.218 60.6388C228.325 60.8736 228.466 61.0613 228.64 61.2019C228.814 61.3425 229.028 61.4128 229.283 61.4128C229.752 61.4128 230.095 61.2457 230.309 60.9101C230.523 60.5758 230.672 60.0665 230.751 59.3821H233.245C233.191 60.6415 232.856 61.6005 232.239 62.2564C231.622 62.913 230.65 63.2413 229.324 63.2413C228.318 63.2413 227.534 63.0735 226.971 62.7386C226.407 62.4043 225.992 61.9619 225.725 61.4121C225.457 60.863 225.292 60.2462 225.232 59.5631C225.172 58.8793 225.141 58.1956 225.141 57.5131C225.141 56.7896 225.191 56.0919 225.292 55.4227C225.393 54.7528 225.594 54.1559 225.896 53.6333C226.197 53.1107 226.629 52.6955 227.192 52.3871C227.755 52.0794 228.505 51.9256 229.444 51.9256C230.248 51.9256 230.908 52.0555 231.425 52.3175C231.94 52.5788 232.346 52.9476 232.641 53.4231C232.935 53.8993 233.137 54.4749 233.244 55.1508C233.35 55.8279 233.404 56.5813 233.404 57.4123V58.0357H227.917V58.9006ZM237.553 52.2074V53.4735H237.593C237.888 52.937 238.27 52.5457 238.74 52.2976C239.209 52.0496 239.745 51.9256 240.348 51.9256C241.233 51.9256 241.913 52.1663 242.388 52.6491C242.865 53.1319 243.102 53.9159 243.102 55.0009V63.0211H240.328V55.5633C240.328 55.0002 240.233 54.6089 240.047 54.3881C239.858 54.1666 239.557 54.0565 239.142 54.0565C238.163 54.0565 237.674 54.652 237.674 55.8445V63.0204H234.899V52.2074H237.553ZM247.016 59.8443C247.016 60.3139 247.14 60.6919 247.388 60.9797C247.636 61.2689 247.995 61.4121 248.464 61.4121C248.892 61.4121 249.235 61.3054 249.489 61.0905C249.744 60.8763 249.871 60.5546 249.871 60.1255C249.871 59.778 249.771 59.5127 249.57 59.3323C249.369 59.1519 249.134 59.008 248.866 58.9006L246.915 58.1962C246.153 57.929 245.575 57.5496 245.187 57.0608C244.799 56.572 244.604 55.9453 244.604 55.1813C244.604 54.7389 244.677 54.3204 244.826 53.9251C244.973 53.5299 245.206 53.185 245.529 52.8892C245.851 52.5954 246.263 52.36 246.765 52.1855C247.268 52.0118 247.875 51.9242 248.585 51.9242C249.844 51.9242 250.776 52.1922 251.38 52.7287C251.983 53.2646 252.284 54.0213 252.284 54.9995V55.4419H249.791C249.791 54.8782 249.7 54.467 249.519 54.2057C249.339 53.9444 249.02 53.8137 248.565 53.8137C248.216 53.8137 247.912 53.9105 247.65 54.1055C247.388 54.2999 247.258 54.5903 247.258 54.979C247.258 55.2469 247.342 55.489 247.509 55.7025C247.677 55.9168 247.995 56.0985 248.464 56.2451L250.133 56.8081C251.004 57.1026 251.62 57.4886 251.983 57.9634C252.345 58.4396 252.525 59.0863 252.525 59.9033C252.525 60.4797 252.425 60.9784 252.223 61.4015C252.022 61.8233 251.744 62.1755 251.389 62.4567C251.034 62.7379 250.612 62.9389 250.122 63.0589C249.634 63.1803 249.094 63.24 248.505 63.24C247.727 63.24 247.081 63.1663 246.564 63.0191C246.048 62.8719 245.639 62.6504 245.337 62.3559C245.036 62.0608 244.826 61.7026 244.704 61.2802C244.584 60.8584 244.524 60.3855 244.524 59.8629V59.4815H247.017V59.8443H247.016ZM257.449 49.1115V52.2074H259.057V54.0962H257.449V59.9458C257.449 60.3742 257.512 60.6786 257.64 60.8604C257.766 61.0401 258.032 61.1316 258.434 61.1316C258.541 61.1316 258.648 61.1283 258.755 61.121C258.862 61.1144 258.963 61.1051 259.056 61.0905V63.0204C258.748 63.0204 258.45 63.0304 258.162 63.0503C257.873 63.0702 257.569 63.0808 257.247 63.0808C256.71 63.0808 256.272 63.0436 255.93 62.97C255.588 62.8971 255.327 62.7485 255.146 62.5277C254.965 62.3068 254.841 62.0157 254.774 61.6542C254.706 61.2921 254.673 60.8371 254.673 60.2867V54.0956H253.266V52.2068H254.673V49.1109L257.449 49.1115ZM265.297 55.292C265.257 54.977 265.187 54.7091 265.087 54.4875C264.986 54.2667 264.846 54.0996 264.664 53.9855C264.483 53.8714 264.252 53.8144 263.971 53.8144C263.689 53.8144 263.458 53.8781 263.277 54.0054C263.097 54.1321 262.952 54.3005 262.845 54.5081C262.738 54.7157 262.661 54.9472 262.613 55.2012C262.566 55.4558 262.544 55.7112 262.544 55.9652V56.387H265.378C265.365 55.9725 265.338 55.6077 265.297 55.292ZM262.544 58.9006C262.544 59.2222 262.566 59.5333 262.613 59.835C262.66 60.1368 262.738 60.4041 262.845 60.6388C262.952 60.8736 263.092 61.0613 263.267 61.2019C263.442 61.3425 263.656 61.4128 263.911 61.4128C264.38 61.4128 264.721 61.2457 264.936 60.9101C265.151 60.5758 265.298 60.0665 265.378 59.3821H267.871C267.818 60.6415 267.482 61.6005 266.866 62.2564C266.25 62.913 265.277 63.2413 263.951 63.2413C262.945 63.2413 262.161 63.0735 261.598 62.7386C261.035 62.4043 260.62 61.9619 260.352 61.4121C260.084 60.863 259.92 60.2462 259.859 59.5631C259.798 58.8793 259.769 58.1956 259.769 57.5131C259.769 56.7896 259.819 56.0919 259.92 55.4227C260.021 54.7535 260.222 54.1559 260.522 53.6333C260.824 53.1107 261.257 52.6955 261.819 52.3871C262.383 52.0794 263.133 51.9256 264.071 51.9256C264.876 51.9256 265.536 52.0555 266.052 52.3175C266.567 52.5788 266.974 52.9476 267.268 53.4231C267.562 53.8993 267.764 54.4749 267.871 55.1508C267.978 55.8279 268.032 56.5813 268.032 57.4123V58.0357H262.544V58.9006Z" fill="white"/>
<path d="M0.161796 1.71109H40.9006C45.6478 1.71109 49.3748 6.62284 49.3748 10.4443C49.3748 13.2377 47.9538 16.1884 44.729 18.0659C48.1024 19.7345 49.9314 23.2595 49.9314 26.0795C49.9314 29.8883 46.5607 34.8863 41.359 34.879L0.161133 34.8903L0.161796 1.71109ZM15.2128 10.9675V25.4906H30.6725V22.5141H17.0875V13.9042L30.6725 13.9115V10.9675H15.2128ZM99.2279 51.6298L122.259 51.6258L132.902 62.7386H110.01L99.2279 51.6298ZM172.239 13.9115H196.876V22.5141H172.239V13.9115ZM125.874 13.9115H150.414V22.5141H125.874V13.9115ZM153.522 1.71109H196.876V10.9675H170.341V25.4906H196.876V34.8783H153.522V1.71109ZM107.061 1.71109H150.414V10.9675H123.878V25.4906H150.414V34.8783H107.061V1.71109ZM199.69 1.71109H240.001C246.004 1.70313 250.905 7.13285 250.905 12.5486C250.905 17.1082 247.371 21.2327 241.933 22.5141L265.452 46.9103H242.544L219.027 22.5141V13.9115H231.527V10.9675H216.737V34.8783H199.691V1.71109H199.69ZM51.5023 1.71109H91.8132C98.2315 1.70313 102.728 7.43594 102.728 12.4962C102.728 17.1348 99.5079 20.9303 93.8737 22.5141L118.119 47.5364H95.1361L70.9701 22.5141V13.9115H83.5679V10.9675H68.6801V34.8783H51.5023V1.71109Z" fill="white"/>
</svg>
