<?xml version="1.0" encoding="utf-8"?>
<!-- Generator: Adobe Illustrator 16.0.4, SVG Export Plug-In . SVG Version: 6.00 Build 0)  -->
<!DOCTYPE svg PUBLIC "-//W3C//DTD SVG 1.1//EN" "http://www.w3.org/Graphics/SVG/1.1/DTD/svg11.dtd">
<svg version="1.1" id="Ebene_1" xmlns="http://www.w3.org/2000/svg" xmlns:xlink="http://www.w3.org/1999/xlink" x="0px" y="0px"
	 width="407px" height="96.5px" viewBox="0 0 407 96.5" enable-background="new 0 0 407 96.5" xml:space="preserve">
<g>
	<path fill="#00457C" d="M390.432,1.25c1.48,0,2.926,0.382,4.336,1.145c1.409,0.756,2.508,1.842,3.295,3.259
		c0.785,1.41,1.179,2.882,1.179,4.417c0,1.518-0.389,2.979-1.168,4.381c-0.771,1.402-1.858,2.492-3.26,3.271
		c-1.394,0.771-2.854,1.156-4.382,1.156c-1.525,0-2.989-0.386-4.393-1.156c-1.393-0.779-2.48-1.869-3.259-3.271
		c-0.779-1.402-1.169-2.863-1.169-4.381c0-1.534,0.394-3.006,1.181-4.417c0.794-1.417,1.896-2.503,3.306-3.259
		C387.508,1.632,388.952,1.25,390.432,1.25L390.432,1.25z M390.432,2.709c-1.237,0-2.445,0.32-3.62,0.958
		c-1.169,0.631-2.084,1.539-2.746,2.722c-0.662,1.176-0.993,2.403-0.993,3.68c0,1.27,0.323,2.488,0.97,3.657
		c0.654,1.161,1.565,2.068,2.733,2.722c1.17,0.647,2.387,0.97,3.656,0.97c1.271,0,2.489-0.323,3.657-0.97
		c1.168-0.654,2.075-1.561,2.723-2.722c0.646-1.168,0.969-2.387,0.97-3.657c0-1.277-0.331-2.504-0.993-3.68
		c-0.654-1.184-1.569-2.091-2.746-2.722C392.866,3.029,391.662,2.71,390.432,2.709L390.432,2.709z M386.885,14.73V5.245h3.26
		c1.113,0,1.92,0.089,2.418,0.269c0.499,0.171,0.896,0.475,1.191,0.911c0.296,0.436,0.444,0.899,0.444,1.39
		c0,0.693-0.249,1.297-0.748,1.811c-0.49,0.514-1.144,0.802-1.962,0.864c0.334,0.14,0.603,0.308,0.806,0.502
		c0.381,0.374,0.85,1.001,1.401,1.88l1.157,1.857h-1.869l-0.841-1.495c-0.662-1.176-1.196-1.912-1.602-2.208
		c-0.28-0.218-0.688-0.327-1.226-0.327h-0.9v4.03H386.885L386.885,14.73z M388.415,9.392h1.858c0.888,0,1.49-0.132,1.811-0.397
		c0.327-0.264,0.49-0.615,0.49-1.051c0-0.281-0.078-0.53-0.234-0.749c-0.155-0.225-0.374-0.393-0.652-0.502
		c-0.273-0.108-0.783-0.163-1.531-0.164h-1.741V9.392L388.415,9.392z"/>
	<path fill="#00457C" d="M223.582,78.566c-0.091-0.424-0.237-0.812-0.438-1.167c-0.202-0.353-0.46-0.646-0.773-0.879
		c-0.313-0.232-0.692-0.348-1.136-0.348c-1.051,0-1.81,0.586-2.274,1.758s-0.697,3.11-0.697,5.817c0,1.295,0.041,2.467,0.122,3.517
		c0.08,1.051,0.228,1.945,0.439,2.682c0.212,0.738,0.515,1.303,0.909,1.697c0.394,0.394,0.903,0.591,1.53,0.591
		c0.263,0,0.551-0.07,0.864-0.212c0.313-0.141,0.606-0.353,0.878-0.636c0.273-0.283,0.501-0.642,0.683-1.076
		c0.182-0.434,0.272-0.944,0.272-1.531v-2.212h-2.879v-3.213h7.062v11.669h-3.212v-2.001h-0.062
		c-0.525,0.849-1.157,1.45-1.894,1.804c-0.738,0.354-1.621,0.53-2.652,0.53c-1.333,0-2.42-0.233-3.258-0.697
		c-0.838-0.465-1.495-1.182-1.971-2.151c-0.475-0.971-0.793-2.167-0.953-3.592c-0.162-1.425-0.243-3.075-0.243-4.954
		c0-1.819,0.116-3.415,0.349-4.789s0.631-2.521,1.197-3.44c0.564-0.919,1.312-1.611,2.243-2.075
		c0.929-0.465,2.091-0.697,3.484-0.697c2.384,0,4.102,0.591,5.152,1.772c1.05,1.182,1.576,2.875,1.576,5.077h-4.183
		C223.719,79.405,223.673,78.99,223.582,78.566L223.582,78.566z M238.733,83.37c-0.062-0.475-0.167-0.879-0.319-1.213
		c-0.151-0.333-0.363-0.585-0.636-0.757c-0.273-0.172-0.621-0.258-1.046-0.258c-0.424,0-0.772,0.096-1.045,0.288
		c-0.273,0.191-0.49,0.445-0.652,0.758c-0.162,0.313-0.278,0.662-0.348,1.045c-0.071,0.384-0.106,0.769-0.106,1.152v0.636h4.273
		C238.834,84.396,238.793,83.846,238.733,83.37L238.733,83.37z M234.581,88.811c0,0.485,0.035,0.954,0.106,1.409
		c0.069,0.455,0.186,0.858,0.348,1.212s0.374,0.637,0.637,0.849s0.585,0.318,0.97,0.318c0.708,0,1.223-0.252,1.546-0.758
		c0.322-0.504,0.546-1.272,0.667-2.304h3.758c-0.081,1.899-0.586,3.345-1.515,4.334c-0.931,0.99-2.396,1.485-4.396,1.485
		c-1.515,0-2.697-0.253-3.546-0.758c-0.848-0.504-1.475-1.171-1.879-2c-0.404-0.828-0.651-1.758-0.742-2.788
		c-0.091-1.031-0.137-2.062-0.137-3.091c0-1.091,0.076-2.143,0.228-3.152s0.454-1.91,0.909-2.698
		c0.454-0.788,1.106-1.414,1.955-1.879c0.848-0.464,1.979-0.696,3.394-0.696c1.212,0,2.207,0.196,2.985,0.591
		c0.778,0.394,1.389,0.95,1.834,1.667c0.444,0.718,0.747,1.586,0.909,2.605c0.161,1.021,0.242,2.157,0.242,3.41v0.94h-8.273V88.811
		L234.581,88.811z M249.288,73.384v6.85h0.062c0.443-0.646,0.943-1.131,1.5-1.455c0.556-0.323,1.228-0.484,2.016-0.484
		c1.717,0,2.979,0.672,3.788,2.016c0.808,1.344,1.212,3.53,1.212,6.561c0,3.031-0.404,5.203-1.212,6.517
		c-0.809,1.313-2.071,1.97-3.788,1.97c-0.849,0-1.562-0.152-2.137-0.455c-0.576-0.303-1.097-0.838-1.562-1.605h-0.06v1.728h-4.001
		v-21.64H249.288L249.288,73.384z M249.698,90.887c0.271,0.898,0.873,1.348,1.803,1.348c0.909,0,1.5-0.449,1.773-1.348
		c0.272-0.899,0.409-2.238,0.409-4.017c0-1.777-0.137-3.115-0.409-4.016c-0.273-0.898-0.864-1.348-1.773-1.348
		c-0.93,0-1.531,0.449-1.803,1.348c-0.273,0.9-0.41,2.238-0.41,4.016C249.288,88.648,249.425,89.987,249.698,90.887L249.698,90.887z
		 M270.376,72.96v3.575h-3.394V72.96H270.376L270.376,72.96z M265.163,72.96v3.575h-3.394V72.96H265.163L265.163,72.96z
		 M266.86,87.4c-0.323,0.132-0.616,0.229-0.879,0.288c-0.849,0.182-1.454,0.485-1.818,0.91c-0.364,0.424-0.545,1-0.545,1.727
		c0,0.627,0.121,1.162,0.363,1.606c0.243,0.445,0.646,0.667,1.213,0.667c0.282,0,0.575-0.045,0.878-0.136
		c0.303-0.092,0.581-0.238,0.834-0.44c0.252-0.201,0.459-0.464,0.621-0.788c0.162-0.323,0.243-0.707,0.243-1.151V86.87
		C267.486,87.094,267.184,87.27,266.86,87.4L266.86,87.4z M260.132,83.324c0-0.948,0.152-1.741,0.455-2.379
		c0.304-0.636,0.712-1.151,1.228-1.546c0.516-0.394,1.122-0.676,1.818-0.848c0.697-0.172,1.439-0.258,2.228-0.258
		c1.253,0,2.263,0.12,3.031,0.363c0.768,0.242,1.363,0.586,1.787,1.03c0.425,0.445,0.713,0.975,0.864,1.591
		c0.151,0.617,0.228,1.289,0.228,2.017v8.576c0,0.769,0.034,1.364,0.105,1.788c0.071,0.425,0.207,0.879,0.409,1.364h-4
		c-0.142-0.263-0.248-0.541-0.318-0.834c-0.07-0.292-0.137-0.58-0.196-0.864h-0.062c-0.484,0.85-1.046,1.4-1.682,1.652
		c-0.637,0.253-1.46,0.379-2.471,0.379c-0.727,0-1.344-0.126-1.849-0.379c-0.505-0.252-0.909-0.601-1.212-1.045
		c-0.303-0.445-0.526-0.945-0.667-1.501c-0.141-0.555-0.212-1.106-0.212-1.651c0-0.768,0.081-1.429,0.242-1.984
		c0.162-0.557,0.41-1.031,0.743-1.426c0.333-0.394,0.758-0.722,1.272-0.984c0.516-0.263,1.136-0.495,1.864-0.697l2.364-0.636
		c0.626-0.162,1.06-0.384,1.303-0.667c0.242-0.283,0.364-0.697,0.364-1.243c0-0.626-0.147-1.116-0.44-1.47s-0.793-0.53-1.5-0.53
		c-0.646,0-1.132,0.192-1.455,0.576s-0.484,0.898-0.484,1.546v0.454h-3.759V83.324L260.132,83.324z M282.859,93.113
		c-0.445,0.81-1.021,1.384-1.728,1.729c-0.708,0.343-1.516,0.515-2.425,0.515c-1.334,0-2.359-0.349-3.076-1.046
		c-0.718-0.697-1.076-1.863-1.076-3.5V78.719h4.183v11.243c0,0.849,0.141,1.439,0.425,1.772c0.282,0.334,0.737,0.5,1.363,0.5
		c1.475,0,2.213-0.897,2.213-2.697V78.719h4.182v16.305h-4v-1.91H282.859L282.859,93.113z M298.028,93.296
		c-0.465,0.768-0.985,1.303-1.562,1.605c-0.575,0.303-1.288,0.455-2.137,0.455c-1.717,0-2.979-0.656-3.788-1.97
		s-1.212-3.485-1.212-6.517c0-3.03,0.403-5.217,1.212-6.561s2.071-2.016,3.788-2.016c0.788,0,1.46,0.161,2.016,0.484
		c0.556,0.324,1.056,0.809,1.5,1.455h0.061v-6.85h4.183v21.64h-4.001v-1.728H298.028L298.028,93.296z M293.921,90.887
		c0.273,0.898,0.864,1.348,1.773,1.348c0.929,0,1.53-0.449,1.803-1.348c0.273-0.899,0.409-2.238,0.409-4.017
		c0-1.777-0.136-3.115-0.409-4.016c-0.272-0.898-0.874-1.348-1.803-1.348c-0.909,0-1.5,0.449-1.773,1.348
		c-0.272,0.9-0.409,2.238-0.409,4.016C293.512,88.648,293.648,89.987,293.921,90.887L293.921,90.887z M312.727,83.37
		c-0.061-0.475-0.166-0.879-0.318-1.213c-0.151-0.333-0.363-0.585-0.636-0.757c-0.273-0.172-0.622-0.258-1.046-0.258
		c-0.425,0-0.773,0.096-1.045,0.288c-0.273,0.191-0.491,0.445-0.652,0.758c-0.162,0.313-0.278,0.662-0.35,1.045
		c-0.07,0.384-0.105,0.769-0.105,1.152v0.636h4.273C312.827,84.396,312.787,83.846,312.727,83.37L312.727,83.37z M308.574,88.811
		c0,0.485,0.035,0.954,0.105,1.409c0.071,0.455,0.188,0.858,0.35,1.212c0.161,0.354,0.374,0.637,0.636,0.849
		c0.263,0.212,0.586,0.318,0.97,0.318c0.707,0,1.223-0.252,1.547-0.758c0.322-0.504,0.545-1.272,0.666-2.304h3.759
		c-0.081,1.899-0.587,3.345-1.517,4.334c-0.929,0.99-2.394,1.485-4.394,1.485c-1.515,0-2.697-0.253-3.546-0.758
		c-0.85-0.504-1.476-1.171-1.879-2c-0.404-0.828-0.652-1.758-0.743-2.788c-0.091-1.031-0.136-2.062-0.136-3.091
		c0-1.091,0.075-2.143,0.227-3.152c0.152-1.01,0.455-1.91,0.91-2.698c0.454-0.788,1.105-1.414,1.954-1.879
		c0.849-0.464,1.979-0.696,3.395-0.696c1.212,0,2.207,0.196,2.985,0.591c0.777,0.394,1.389,0.95,1.834,1.667
		c0.444,0.718,0.747,1.586,0.909,2.605c0.161,1.021,0.241,2.157,0.241,3.41v0.94h-8.273V88.811L308.574,88.811z M327.383,93.296
		c-0.465,0.768-0.984,1.303-1.561,1.605s-1.288,0.455-2.137,0.455c-1.718,0-2.98-0.656-3.788-1.97
		c-0.809-1.313-1.212-3.485-1.212-6.517c0-3.03,0.403-5.217,1.212-6.561c0.808-1.344,2.07-2.016,3.788-2.016
		c0.787,0,1.46,0.161,2.016,0.484c0.555,0.324,1.055,0.809,1.5,1.455h0.06v-6.85h4.184v21.64h-4.001v-1.728H327.383L327.383,93.296z
		 M323.276,90.887c0.272,0.898,0.864,1.348,1.772,1.348c0.93,0,1.531-0.449,1.804-1.348c0.272-0.899,0.408-2.238,0.408-4.017
		c0-1.777-0.136-3.115-0.408-4.016c-0.272-0.898-0.874-1.348-1.804-1.348c-0.908,0-1.5,0.449-1.772,1.348
		c-0.273,0.9-0.409,2.238-0.409,4.016C322.867,88.648,323.003,89.987,323.276,90.887L323.276,90.887z M338.49,73.142v3.576h-4.182
		v-3.576H338.49L338.49,73.142z M338.49,78.719v16.305h-4.182V78.719H338.49L338.49,78.719z M349.223,83.37
		c-0.062-0.475-0.168-0.879-0.319-1.213c-0.151-0.333-0.363-0.585-0.636-0.757c-0.273-0.172-0.621-0.258-1.047-0.258
		c-0.424,0-0.772,0.096-1.045,0.288c-0.272,0.191-0.489,0.445-0.651,0.758c-0.162,0.313-0.278,0.662-0.349,1.045
		c-0.07,0.384-0.105,0.769-0.105,1.152v0.636h4.272C349.322,84.396,349.282,83.846,349.223,83.37L349.223,83.37z M345.07,88.811
		c0,0.485,0.035,0.954,0.105,1.409s0.187,0.858,0.349,1.212s0.374,0.637,0.637,0.849c0.262,0.212,0.585,0.318,0.969,0.318
		c0.707,0,1.224-0.252,1.546-0.758c0.323-0.504,0.547-1.272,0.667-2.304h3.759c-0.081,1.899-0.586,3.345-1.517,4.334
		c-0.929,0.99-2.394,1.485-4.394,1.485c-1.516,0-2.697-0.253-3.546-0.758c-0.85-0.504-1.476-1.171-1.879-2
		c-0.404-0.828-0.652-1.758-0.742-2.788c-0.091-1.031-0.138-2.062-0.138-3.091c0-1.091,0.076-2.143,0.228-3.152
		c0.152-1.01,0.455-1.91,0.91-2.698c0.454-0.788,1.105-1.414,1.954-1.879c0.849-0.464,1.979-0.696,3.395-0.696
		c1.212,0,2.207,0.196,2.985,0.591c0.777,0.394,1.389,0.95,1.834,1.667c0.443,0.718,0.747,1.586,0.909,2.605
		c0.16,1.021,0.241,2.157,0.241,3.41v0.94h-8.272V88.811L345.07,88.811z M359.596,78.719v1.909h0.061
		c0.444-0.809,1.02-1.399,1.728-1.773c0.707-0.374,1.516-0.561,2.425-0.561c1.334,0,2.358,0.363,3.075,1.091
		c0.718,0.728,1.076,1.91,1.076,3.546v12.093h-4.182V83.779c0-0.849-0.143-1.439-0.424-1.772c-0.284-0.334-0.738-0.5-1.364-0.5
		c-1.475,0-2.213,0.898-2.213,2.696v10.82h-4.183V78.719H359.596L359.596,78.719z M373.861,90.234c0,0.708,0.187,1.278,0.561,1.712
		c0.373,0.436,0.914,0.652,1.621,0.652c0.646,0,1.162-0.161,1.546-0.485c0.384-0.323,0.576-0.808,0.576-1.455
		c0-0.524-0.151-0.924-0.455-1.196c-0.303-0.272-0.657-0.489-1.061-0.651l-2.94-1.062c-1.15-0.403-2.02-0.975-2.605-1.712
		s-0.879-1.682-0.879-2.834c0-0.667,0.11-1.298,0.334-1.894c0.222-0.596,0.574-1.116,1.06-1.562
		c0.485-0.443,1.106-0.798,1.864-1.061c0.758-0.262,1.672-0.394,2.743-0.394c1.898,0,3.303,0.404,4.213,1.213
		c0.909,0.808,1.362,1.949,1.362,3.424v0.667h-3.758c0-0.85-0.136-1.47-0.409-1.864c-0.272-0.394-0.753-0.591-1.438-0.591
		c-0.526,0-0.985,0.146-1.379,0.44c-0.395,0.293-0.591,0.731-0.591,1.317c0,0.404,0.126,0.769,0.378,1.091
		c0.253,0.323,0.732,0.597,1.439,0.818l2.517,0.849c1.312,0.444,2.241,1.026,2.788,1.742c0.545,0.718,0.817,1.693,0.817,2.925
		c0,0.869-0.151,1.621-0.455,2.259c-0.303,0.636-0.722,1.167-1.257,1.591c-0.536,0.424-1.172,0.727-1.91,0.908
		c-0.736,0.183-1.55,0.273-2.438,0.273c-1.173,0-2.147-0.111-2.925-0.333c-0.778-0.222-1.395-0.556-1.85-1
		c-0.454-0.445-0.771-0.985-0.954-1.622c-0.182-0.636-0.272-1.349-0.272-2.137v-0.575h3.758V90.234L373.861,90.234z M389.587,74.051
		v4.668h2.424v2.848h-2.424v8.82c0,0.646,0.095,1.105,0.288,1.379c0.191,0.271,0.591,0.409,1.197,0.409
		c0.161,0,0.323-0.005,0.484-0.016c0.161-0.01,0.313-0.024,0.454-0.046v2.91c-0.465,0-0.913,0.015-1.348,0.045
		s-0.894,0.046-1.379,0.046c-0.809,0-1.47-0.056-1.985-0.167c-0.516-0.11-0.91-0.334-1.182-0.667
		c-0.273-0.333-0.46-0.772-0.561-1.317c-0.102-0.546-0.152-1.232-0.152-2.062v-9.335h-2.121v-2.848h2.121v-4.668H389.587
		L389.587,74.051z M401.418,83.37c-0.06-0.475-0.166-0.879-0.317-1.213c-0.152-0.333-0.364-0.585-0.637-0.757
		s-0.622-0.258-1.046-0.258s-0.772,0.096-1.046,0.288c-0.271,0.191-0.49,0.445-0.651,0.758c-0.161,0.313-0.277,0.662-0.349,1.045
		c-0.071,0.384-0.105,0.769-0.105,1.152v0.636h4.272C401.52,84.396,401.479,83.846,401.418,83.37L401.418,83.37z M397.267,88.811
		c0,0.485,0.034,0.954,0.105,1.409s0.188,0.858,0.349,1.212s0.373,0.637,0.637,0.849c0.263,0.212,0.586,0.318,0.97,0.318
		c0.707,0,1.222-0.252,1.546-0.758c0.323-0.504,0.545-1.272,0.666-2.304h3.758c-0.08,1.899-0.586,3.345-1.515,4.334
		c-0.929,0.99-2.395,1.485-4.394,1.485c-1.517,0-2.698-0.253-3.547-0.758c-0.849-0.504-1.475-1.171-1.879-2
		c-0.404-0.828-0.651-1.758-0.743-2.788c-0.091-1.031-0.136-2.062-0.136-3.091c0-1.091,0.076-2.143,0.228-3.152
		s0.455-1.91,0.908-2.698c0.455-0.788,1.107-1.414,1.955-1.879c0.85-0.464,1.98-0.696,3.395-0.696c1.213,0,2.208,0.196,2.985,0.591
		c0.777,0.394,1.39,0.95,1.833,1.667c0.444,0.718,0.748,1.586,0.909,2.605c0.162,1.021,0.243,2.157,0.243,3.41v0.94h-8.273V88.811
		L397.267,88.811z"/>
	<path fill="#00457C" d="M1.751,2.58h61.41c7.156,0,12.774,7.406,12.774,13.168c0,4.212-2.142,8.661-7.003,11.492
		c5.085,2.516,7.842,7.831,7.842,12.083c0,5.743-5.081,13.279-12.922,13.268L1.75,52.608L1.751,2.58L1.751,2.58z M24.439,16.537
		v21.898h23.304v-4.488H27.265V20.965l20.478,0.011v-4.439H24.439L24.439,16.537z M151.084,77.848l34.717-0.006l16.044,16.756
		h-34.508L151.084,77.848L151.084,77.848z M261.142,20.976h37.138v12.971h-37.138V20.976L261.142,20.976z M191.25,20.976h36.992
		v12.971H191.25V20.976L191.25,20.976z M232.928,2.58h65.352v13.957h-40v21.898h40V52.59h-65.352V2.58L232.928,2.58z M162.891,2.58
		h65.351v13.957h-40v21.898h40V52.59h-65.351V2.58L162.891,2.58z M302.522,2.58h60.764c9.05-0.012,16.437,8.175,16.437,16.341
		c0,6.875-5.327,13.094-13.525,15.026l35.454,36.785h-34.532L331.67,33.947V20.976h18.842v-4.439h-22.294V52.59h-25.695V2.58
		L302.522,2.58z M79.142,2.58h60.765c9.675-0.012,16.453,8.632,16.453,16.262c0,6.994-4.854,12.717-13.347,15.105l36.548,37.729
		h-34.645l-36.428-37.729V20.976h18.99v-4.439h-22.442V52.59H79.142V2.58L79.142,2.58z"/>
</g>
</svg>
